<?xml version="1.0" encoding="UTF-8"?>
<svg id="Layer_2" data-name="Layer 2" xmlns="http://www.w3.org/2000/svg" viewBox="0 0 464.61 318.41">
  <defs>
    <style>
      .cls-1 {
        fill: #95d8ec;
      }
    </style>
  </defs>
  <g id="Layer_1-2" data-name="Layer 1">
    <g>
      <rect class="cls-1" x="28.95" y="28.95" width="405.98" height="289.47"/>
      <rect class="cls-1" x="8.48" y="37.42" width="40.94" height="40.94" transform="translate(49.41 -3.51) rotate(45)"/>
      <rect class="cls-1" x="8.48" y="95.32" width="40.94" height="40.94" transform="translate(90.35 13.44) rotate(45)"/>
      <rect class="cls-1" x="8.48" y="153.21" width="40.94" height="40.94" transform="translate(131.29 30.4) rotate(45)"/>
      <rect class="cls-1" x="8.48" y="211.1" width="40.94" height="40.94" transform="translate(172.22 47.36) rotate(45)"/>
      <rect class="cls-1" x="8.48" y="269" width="40.94" height="40.94" transform="translate(213.16 64.31) rotate(45)"/>
      <rect class="cls-1" x="268.26" y="9.21" width="40.94" height="40.94" transform="translate(513.88 -153.5) rotate(135)"/>
      <rect class="cls-1" x="210.37" y="9.21" width="40.94" height="40.94" transform="translate(415.05 -112.56) rotate(135)"/>
      <rect class="cls-1" x="386.25" y="8.48" width="40.94" height="40.94" transform="translate(714.78 -238.18) rotate(135)"/>
      <rect class="cls-1" x="328.36" y="8.48" width="40.94" height="40.94" transform="translate(615.95 -197.24) rotate(135)"/>
      <rect class="cls-1" x="152.48" y="9.21" width="40.94" height="40.94" transform="translate(316.22 -71.63) rotate(135)"/>
      <rect class="cls-1" x="94.59" y="9.21" width="40.94" height="40.94" transform="translate(217.39 -30.69) rotate(135)"/>
      <rect class="cls-1" x="36.69" y="9.21" width="40.94" height="40.94" transform="translate(118.57 10.25) rotate(135)"/>
      <rect class="cls-1" x="415.2" y="37.42" width="40.94" height="40.94" transform="translate(168.54 -291.1) rotate(45)"/>
      <rect class="cls-1" x="415.2" y="95.32" width="40.94" height="40.94" transform="translate(209.48 -274.15) rotate(45)"/>
      <rect class="cls-1" x="415.2" y="153.21" width="40.94" height="40.94" transform="translate(250.41 -257.19) rotate(45)"/>
      <rect class="cls-1" x="415.2" y="211.1" width="40.94" height="40.94" transform="translate(291.35 -240.23) rotate(45)"/>
      <rect class="cls-1" x="415.2" y="269" width="40.94" height="40.94" transform="translate(332.29 -223.28) rotate(45)"/>
    </g>
  </g>
</svg>